<mxfile host="65bd71144e" pages="2">
    <diagram id="6eNJX2l-FpmvZ1fbroAp" name="Lab">
        <mxGraphModel dx="533" dy="1668" grid="1" gridSize="10" guides="1" tooltips="1" connect="1" arrows="1" fold="1" page="1" pageScale="1" pageWidth="850" pageHeight="1100" math="0" shadow="0">
            <root>
                <mxCell id="xybVMRSyUclaMZeZH3cs-0"/>
                <mxCell id="xybVMRSyUclaMZeZH3cs-1" parent="xybVMRSyUclaMZeZH3cs-0"/>
                <mxCell id="PEy6zUUL9-_vCdnStAGh-1" value="Web App / SPA" style="rounded=1;whiteSpace=wrap;html=1;fillColor=#fad9d5;strokeColor=#ae4132;fontStyle=1;verticalAlign=middle;" parent="xybVMRSyUclaMZeZH3cs-1" vertex="1">
                    <mxGeometry x="1540" y="1100" width="240" height="180" as="geometry"/>
                </mxCell>
                <mxCell id="uYXfiU1z-GfduqWxRQ0b-37" value="" style="rounded=1;whiteSpace=wrap;html=1;fillColor=#d0cee2;strokeColor=#56517e;verticalAlign=bottom;" parent="xybVMRSyUclaMZeZH3cs-1" vertex="1">
                    <mxGeometry x="739" y="600" width="1072.5" height="460" as="geometry"/>
                </mxCell>
                <mxCell id="uYXfiU1z-GfduqWxRQ0b-16" value="" style="rounded=1;whiteSpace=wrap;html=1;fillColor=#e3c800;strokeColor=#B09500;verticalAlign=bottom;fontColor=#000000;" parent="xybVMRSyUclaMZeZH3cs-1" vertex="1">
                    <mxGeometry x="190" y="700" width="500" height="270" as="geometry"/>
                </mxCell>
                <mxCell id="xybVMRSyUclaMZeZH3cs-2" value="@" style="rounded=1;whiteSpace=wrap;html=1;fillColor=#1ba1e2;strokeColor=#006EAF;verticalAlign=bottom;fontColor=#ffffff;" parent="xybVMRSyUclaMZeZH3cs-1" vertex="1">
                    <mxGeometry x="80" y="50" width="550" height="420" as="geometry"/>
                </mxCell>
                <mxCell id="xybVMRSyUclaMZeZH3cs-3" value="&amp;nbsp;Amdocs @ Cyprus" style="html=1;strokeColor=none;fillColor=#0079D6;labelPosition=center;verticalLabelPosition=middle;verticalAlign=top;align=center;fontSize=12;outlineConnect=0;spacingTop=-6;fontColor=#FFFFFF;sketch=0;shape=mxgraph.sitemap.photo;" parent="xybVMRSyUclaMZeZH3cs-1" vertex="1">
                    <mxGeometry x="120" y="80" width="200" height="140" as="geometry"/>
                </mxCell>
                <mxCell id="xybVMRSyUclaMZeZH3cs-4" value="&lt;div&gt;AMDOCS@CYPRUS CUSTOMER ENGAGEMENT PLATFORM&lt;/div&gt;&lt;div&gt;.&lt;/div&gt;" style="rounded=1;whiteSpace=wrap;html=1;fillColor=#fad9d5;strokeColor=#ae4132;fontStyle=1;verticalAlign=middle;" parent="xybVMRSyUclaMZeZH3cs-1" vertex="1">
                    <mxGeometry x="120" y="280" width="305" height="50" as="geometry"/>
                </mxCell>
                <mxCell id="xybVMRSyUclaMZeZH3cs-6" value="Get Event photo" style="rounded=1;whiteSpace=wrap;html=1;fillColor=#e51400;strokeColor=#B20000;verticalAlign=middle;align=center;fontStyle=1;fontColor=#ffffff;" parent="xybVMRSyUclaMZeZH3cs-1" vertex="1">
                    <mxGeometry x="390" y="110" width="100" height="50" as="geometry"/>
                </mxCell>
                <mxCell id="xybVMRSyUclaMZeZH3cs-8" value="US01 : We need a dashboard to showcase our knowledge on React components." style="rounded=1;whiteSpace=wrap;html=1;fillColor=#b0e3e6;strokeColor=#0e8088;fontStyle=1;" parent="xybVMRSyUclaMZeZH3cs-1" vertex="1">
                    <mxGeometry x="270" y="490" width="230" height="90" as="geometry"/>
                </mxCell>
                <mxCell id="xybVMRSyUclaMZeZH3cs-11" value="" style="edgeStyle=orthogonalEdgeStyle;rounded=0;orthogonalLoop=1;jettySize=auto;html=1;" parent="xybVMRSyUclaMZeZH3cs-1" source="xybVMRSyUclaMZeZH3cs-9" target="xybVMRSyUclaMZeZH3cs-10" edge="1">
                    <mxGeometry relative="1" as="geometry"/>
                </mxCell>
                <mxCell id="xybVMRSyUclaMZeZH3cs-9" value="Lab&lt;br&gt;Create the Card Component.&lt;br&gt;" style="rounded=1;whiteSpace=wrap;html=1;fillColor=#d5e8d4;strokeColor=#82b366;verticalAlign=bottom;" parent="xybVMRSyUclaMZeZH3cs-1" vertex="1">
                    <mxGeometry x="660" y="30" width="170" height="30" as="geometry"/>
                </mxCell>
                <mxCell id="xybVMRSyUclaMZeZH3cs-19" value="" style="edgeStyle=orthogonalEdgeStyle;rounded=0;orthogonalLoop=1;jettySize=auto;html=1;" parent="xybVMRSyUclaMZeZH3cs-1" source="xybVMRSyUclaMZeZH3cs-10" target="xybVMRSyUclaMZeZH3cs-18" edge="1">
                    <mxGeometry relative="1" as="geometry"/>
                </mxCell>
                <mxCell id="xybVMRSyUclaMZeZH3cs-10" value="Create the child components" style="whiteSpace=wrap;html=1;rounded=1;verticalAlign=bottom;strokeColor=#82b366;fillColor=#d5e8d4;" parent="xybVMRSyUclaMZeZH3cs-1" vertex="1">
                    <mxGeometry x="662.5" y="105" width="165" height="45" as="geometry"/>
                </mxCell>
                <mxCell id="xybVMRSyUclaMZeZH3cs-12" value="&lt;div&gt;&lt;br&gt;&lt;/div&gt;&lt;div&gt;From Amdocs@Cyrprus &amp;amp; Microsoft, a platform designed to enable CSPs to provide their customers with simple, digital-first, AI-driven intuitive experiences.&lt;/div&gt;" style="rounded=1;whiteSpace=wrap;html=1;fillColor=#fad9d5;strokeColor=#ae4132;fontStyle=1;verticalAlign=middle;" parent="xybVMRSyUclaMZeZH3cs-1" vertex="1">
                    <mxGeometry x="120" y="340" width="310" height="70" as="geometry"/>
                </mxCell>
                <mxCell id="xybVMRSyUclaMZeZH3cs-14" value="ContentComponent" style="rounded=1;whiteSpace=wrap;html=1;fillColor=#b0e3e6;strokeColor=#0e8088;fontStyle=1;" parent="xybVMRSyUclaMZeZH3cs-1" vertex="1">
                    <mxGeometry x="460" y="365" width="140" height="40" as="geometry"/>
                </mxCell>
                <mxCell id="xybVMRSyUclaMZeZH3cs-15" value="Header Component" style="rounded=1;whiteSpace=wrap;html=1;fillColor=#b0e3e6;strokeColor=#0e8088;fontStyle=1;" parent="xybVMRSyUclaMZeZH3cs-1" vertex="1">
                    <mxGeometry x="460" y="280" width="140" height="40" as="geometry"/>
                </mxCell>
                <mxCell id="xybVMRSyUclaMZeZH3cs-16" value="Best Picture" style="rounded=1;whiteSpace=wrap;html=1;fillColor=#e51400;strokeColor=#B20000;fontStyle=1;fontColor=#ffffff;" parent="xybVMRSyUclaMZeZH3cs-1" vertex="1">
                    <mxGeometry x="160" y="230" width="140" height="40" as="geometry"/>
                </mxCell>
                <mxCell id="xybVMRSyUclaMZeZH3cs-17" value="Learn more Amdocs Cyrprus" style="rounded=1;whiteSpace=wrap;html=1;fillColor=#b0e3e6;strokeColor=#0e8088;fontStyle=1;" parent="xybVMRSyUclaMZeZH3cs-1" vertex="1">
                    <mxGeometry x="390" y="170" width="140" height="40" as="geometry"/>
                </mxCell>
                <mxCell id="xybVMRSyUclaMZeZH3cs-23" value="" style="edgeStyle=orthogonalEdgeStyle;rounded=0;orthogonalLoop=1;jettySize=auto;html=1;" parent="xybVMRSyUclaMZeZH3cs-1" source="xybVMRSyUclaMZeZH3cs-18" target="xybVMRSyUclaMZeZH3cs-22" edge="1">
                    <mxGeometry relative="1" as="geometry"/>
                </mxCell>
                <mxCell id="xybVMRSyUclaMZeZH3cs-18" value="Modularize the Profie component" style="whiteSpace=wrap;html=1;rounded=1;verticalAlign=bottom;strokeColor=#82b366;fillColor=#d5e8d4;" parent="xybVMRSyUclaMZeZH3cs-1" vertex="1">
                    <mxGeometry x="662.5" y="200" width="165" height="45" as="geometry"/>
                </mxCell>
                <mxCell id="xybVMRSyUclaMZeZH3cs-25" value="" style="edgeStyle=orthogonalEdgeStyle;rounded=0;orthogonalLoop=1;jettySize=auto;html=1;" parent="xybVMRSyUclaMZeZH3cs-1" source="xybVMRSyUclaMZeZH3cs-22" target="xybVMRSyUclaMZeZH3cs-24" edge="1">
                    <mxGeometry relative="1" as="geometry"/>
                </mxCell>
                <mxCell id="xybVMRSyUclaMZeZH3cs-22" value="Name the components appropriately" style="whiteSpace=wrap;html=1;rounded=1;verticalAlign=bottom;strokeColor=#82b366;fillColor=#d5e8d4;" parent="xybVMRSyUclaMZeZH3cs-1" vertex="1">
                    <mxGeometry x="662" y="290" width="165" height="45" as="geometry"/>
                </mxCell>
                <mxCell id="xybVMRSyUclaMZeZH3cs-27" value="" style="edgeStyle=orthogonalEdgeStyle;rounded=0;orthogonalLoop=1;jettySize=auto;html=1;" parent="xybVMRSyUclaMZeZH3cs-1" source="xybVMRSyUclaMZeZH3cs-24" target="xybVMRSyUclaMZeZH3cs-26" edge="1">
                    <mxGeometry relative="1" as="geometry"/>
                </mxCell>
                <mxCell id="xybVMRSyUclaMZeZH3cs-24" value="Create the named and defualt components" style="whiteSpace=wrap;html=1;rounded=1;verticalAlign=bottom;strokeColor=#82b366;fillColor=#d5e8d4;" parent="xybVMRSyUclaMZeZH3cs-1" vertex="1">
                    <mxGeometry x="662" y="375" width="165" height="45" as="geometry"/>
                </mxCell>
                <mxCell id="xybVMRSyUclaMZeZH3cs-29" value="" style="edgeStyle=orthogonalEdgeStyle;rounded=0;orthogonalLoop=1;jettySize=auto;html=1;" parent="xybVMRSyUclaMZeZH3cs-1" source="xybVMRSyUclaMZeZH3cs-26" target="xybVMRSyUclaMZeZH3cs-28" edge="1">
                    <mxGeometry relative="1" as="geometry"/>
                </mxCell>
                <mxCell id="xybVMRSyUclaMZeZH3cs-26" value="Import &amp;amp; export components" style="whiteSpace=wrap;html=1;rounded=1;verticalAlign=bottom;strokeColor=#82b366;fillColor=#d5e8d4;" parent="xybVMRSyUclaMZeZH3cs-1" vertex="1">
                    <mxGeometry x="662.5" y="470" width="165" height="45" as="geometry"/>
                </mxCell>
                <mxCell id="xybVMRSyUclaMZeZH3cs-28" value="Consume them inside the app!" style="whiteSpace=wrap;html=1;rounded=1;verticalAlign=bottom;strokeColor=#82b366;fillColor=#d5e8d4;" parent="xybVMRSyUclaMZeZH3cs-1" vertex="1">
                    <mxGeometry x="662" y="570" width="165" height="45" as="geometry"/>
                </mxCell>
                <mxCell id="wlzBSrsVffSciCvjQ8qV-0" value="Get Speker Photo" style="rounded=1;whiteSpace=wrap;html=1;fillColor=#e51400;strokeColor=#B20000;verticalAlign=middle;align=center;fontStyle=1;fontColor=#ffffff;" parent="xybVMRSyUclaMZeZH3cs-1" vertex="1">
                    <mxGeometry x="500" y="110" width="100" height="50" as="geometry"/>
                </mxCell>
                <mxCell id="wlzBSrsVffSciCvjQ8qV-1" value="class MailBox&lt;br&gt;" style="rounded=1;whiteSpace=wrap;html=1;fillColor=#e1d5e7;strokeColor=#9673a6;" parent="xybVMRSyUclaMZeZH3cs-1" vertex="1">
                    <mxGeometry x="910" y="155" width="170" height="120" as="geometry"/>
                </mxCell>
                <mxCell id="wlzBSrsVffSciCvjQ8qV-3" value="class MailBox&lt;br&gt;Object state = init mails" style="rounded=1;whiteSpace=wrap;html=1;fillColor=#e1d5e7;strokeColor=#9673a6;" parent="xybVMRSyUclaMZeZH3cs-1" vertex="1">
                    <mxGeometry x="1125" y="155" width="150" height="90" as="geometry"/>
                </mxCell>
                <mxCell id="wlzBSrsVffSciCvjQ8qV-4" value="" style="shape=table;html=1;whiteSpace=wrap;startSize=0;container=1;collapsible=0;childLayout=tableLayout;fillColor=#d5e8d4;strokeColor=#82b366;" parent="xybVMRSyUclaMZeZH3cs-1" vertex="1">
                    <mxGeometry x="1130" y="57" width="180" height="70" as="geometry"/>
                </mxCell>
                <mxCell id="wlzBSrsVffSciCvjQ8qV-5" value="" style="shape=partialRectangle;html=1;whiteSpace=wrap;collapsible=0;dropTarget=0;pointerEvents=0;fillColor=none;top=0;left=0;bottom=0;right=0;points=[[0,0.5],[1,0.5]];portConstraint=eastwest;" parent="wlzBSrsVffSciCvjQ8qV-4" vertex="1">
                    <mxGeometry width="180" height="20" as="geometry"/>
                </mxCell>
                <mxCell id="wlzBSrsVffSciCvjQ8qV-6" value="" style="shape=partialRectangle;html=1;whiteSpace=wrap;connectable=0;fillColor=none;top=0;left=0;bottom=0;right=0;overflow=hidden;pointerEvents=1;" parent="wlzBSrsVffSciCvjQ8qV-5" vertex="1">
                    <mxGeometry width="70" height="20" as="geometry"/>
                </mxCell>
                <mxCell id="wlzBSrsVffSciCvjQ8qV-7" value="" style="shape=partialRectangle;html=1;whiteSpace=wrap;connectable=0;fillColor=none;top=0;left=0;bottom=0;right=0;overflow=hidden;pointerEvents=1;" parent="wlzBSrsVffSciCvjQ8qV-5" vertex="1">
                    <mxGeometry x="70" width="90" height="20" as="geometry"/>
                </mxCell>
                <mxCell id="wlzBSrsVffSciCvjQ8qV-8" value="" style="shape=partialRectangle;html=1;whiteSpace=wrap;connectable=0;fillColor=none;top=0;left=0;bottom=0;right=0;overflow=hidden;pointerEvents=1;" parent="wlzBSrsVffSciCvjQ8qV-5" vertex="1">
                    <mxGeometry x="160" width="20" height="20" as="geometry"/>
                </mxCell>
                <mxCell id="wlzBSrsVffSciCvjQ8qV-9" value="" style="shape=partialRectangle;html=1;whiteSpace=wrap;collapsible=0;dropTarget=0;pointerEvents=0;fillColor=none;top=0;left=0;bottom=0;right=0;points=[[0,0.5],[1,0.5]];portConstraint=eastwest;" parent="wlzBSrsVffSciCvjQ8qV-4" vertex="1">
                    <mxGeometry y="20" width="180" height="33" as="geometry"/>
                </mxCell>
                <mxCell id="wlzBSrsVffSciCvjQ8qV-10" value="" style="shape=partialRectangle;html=1;whiteSpace=wrap;connectable=0;fillColor=none;top=0;left=0;bottom=0;right=0;overflow=hidden;pointerEvents=1;" parent="wlzBSrsVffSciCvjQ8qV-9" vertex="1">
                    <mxGeometry width="70" height="33" as="geometry"/>
                </mxCell>
                <mxCell id="wlzBSrsVffSciCvjQ8qV-11" value="" style="shape=partialRectangle;html=1;whiteSpace=wrap;connectable=0;fillColor=none;top=0;left=0;bottom=0;right=0;overflow=hidden;pointerEvents=1;" parent="wlzBSrsVffSciCvjQ8qV-9" vertex="1">
                    <mxGeometry x="70" width="90" height="33" as="geometry"/>
                </mxCell>
                <mxCell id="wlzBSrsVffSciCvjQ8qV-12" value="" style="shape=partialRectangle;html=1;whiteSpace=wrap;connectable=0;fillColor=none;top=0;left=0;bottom=0;right=0;overflow=hidden;pointerEvents=1;" parent="wlzBSrsVffSciCvjQ8qV-9" vertex="1">
                    <mxGeometry x="160" width="20" height="33" as="geometry"/>
                </mxCell>
                <mxCell id="wlzBSrsVffSciCvjQ8qV-13" value="" style="shape=partialRectangle;html=1;whiteSpace=wrap;collapsible=0;dropTarget=0;pointerEvents=0;fillColor=none;top=0;left=0;bottom=0;right=0;points=[[0,0.5],[1,0.5]];portConstraint=eastwest;" parent="wlzBSrsVffSciCvjQ8qV-4" vertex="1">
                    <mxGeometry y="53" width="180" height="17" as="geometry"/>
                </mxCell>
                <mxCell id="wlzBSrsVffSciCvjQ8qV-14" value="" style="shape=partialRectangle;html=1;whiteSpace=wrap;connectable=0;fillColor=none;top=0;left=0;bottom=0;right=0;overflow=hidden;pointerEvents=1;" parent="wlzBSrsVffSciCvjQ8qV-13" vertex="1">
                    <mxGeometry width="70" height="17" as="geometry"/>
                </mxCell>
                <mxCell id="wlzBSrsVffSciCvjQ8qV-15" value="" style="shape=partialRectangle;html=1;whiteSpace=wrap;connectable=0;fillColor=none;top=0;left=0;bottom=0;right=0;overflow=hidden;pointerEvents=1;" parent="wlzBSrsVffSciCvjQ8qV-13" vertex="1">
                    <mxGeometry x="70" width="90" height="17" as="geometry"/>
                </mxCell>
                <mxCell id="wlzBSrsVffSciCvjQ8qV-16" value="" style="shape=partialRectangle;html=1;whiteSpace=wrap;connectable=0;fillColor=none;top=0;left=0;bottom=0;right=0;overflow=hidden;pointerEvents=1;" parent="wlzBSrsVffSciCvjQ8qV-13" vertex="1">
                    <mxGeometry x="160" width="20" height="17" as="geometry"/>
                </mxCell>
                <mxCell id="wlzBSrsVffSciCvjQ8qV-17" value="State" style="rounded=1;whiteSpace=wrap;html=1;fillColor=#d5e8d4;strokeColor=#82b366;fontStyle=1;" parent="xybVMRSyUclaMZeZH3cs-1" vertex="1">
                    <mxGeometry x="940" y="250" width="110" height="20" as="geometry"/>
                </mxCell>
                <mxCell id="wlzBSrsVffSciCvjQ8qV-18" style="edgeStyle=orthogonalEdgeStyle;rounded=0;orthogonalLoop=1;jettySize=auto;html=1;exitX=0.5;exitY=1;exitDx=0;exitDy=0;entryX=0.5;entryY=0;entryDx=0;entryDy=0;fillColor=#d5e8d4;strokeColor=#82b366;" parent="xybVMRSyUclaMZeZH3cs-1" source="wlzBSrsVffSciCvjQ8qV-17" target="wlzBSrsVffSciCvjQ8qV-17" edge="1">
                    <mxGeometry relative="1" as="geometry"/>
                </mxCell>
                <mxCell id="uYXfiU1z-GfduqWxRQ0b-0" value="Amdocs Cyprus Dashboard" style="rounded=1;whiteSpace=wrap;html=1;fillColor=#1ba1e2;strokeColor=#006EAF;fontStyle=1;fontColor=#ffffff;" parent="xybVMRSyUclaMZeZH3cs-1" vertex="1">
                    <mxGeometry x="250" y="10" width="230" height="40" as="geometry"/>
                </mxCell>
                <mxCell id="uYXfiU1z-GfduqWxRQ0b-1" value="State" style="rounded=1;whiteSpace=wrap;html=1;fillColor=#e6d0de;strokeColor=#996185;verticalAlign=middle;align=center;fontStyle=1;gradientColor=#d5739d;" parent="xybVMRSyUclaMZeZH3cs-1" vertex="1">
                    <mxGeometry x="530" y="30" width="100" height="50" as="geometry"/>
                </mxCell>
                <mxCell id="uYXfiU1z-GfduqWxRQ0b-2" value="State change re-renders the child components" style="rounded=1;whiteSpace=wrap;html=1;fillColor=#1ba1e2;strokeColor=#006EAF;fontStyle=1;verticalAlign=middle;fontColor=#ffffff;" parent="xybVMRSyUclaMZeZH3cs-1" vertex="1">
                    <mxGeometry x="530" y="-40" width="130" height="40" as="geometry"/>
                </mxCell>
                <mxCell id="uYXfiU1z-GfduqWxRQ0b-3" value="State" style="rounded=1;whiteSpace=wrap;html=1;fillColor=#008a00;strokeColor=#005700;fontStyle=1;verticalAlign=middle;fontColor=#ffffff;" parent="xybVMRSyUclaMZeZH3cs-1" vertex="1">
                    <mxGeometry x="1070" y="410" width="130" height="40" as="geometry"/>
                </mxCell>
                <mxCell id="uYXfiU1z-GfduqWxRQ0b-4" value="Properties" style="rounded=1;whiteSpace=wrap;html=1;fillColor=#008a00;strokeColor=#005700;fontStyle=1;verticalAlign=middle;fontColor=#ffffff;" parent="xybVMRSyUclaMZeZH3cs-1" vertex="1">
                    <mxGeometry x="1070" y="450" width="130" height="40" as="geometry"/>
                </mxCell>
                <mxCell id="uYXfiU1z-GfduqWxRQ0b-5" value="Memo component to&amp;nbsp;&lt;br&gt;avoid rerendering" style="rounded=1;whiteSpace=wrap;html=1;fillColor=#fad9d5;strokeColor=#ae4132;fontStyle=1;verticalAlign=middle;" parent="xybVMRSyUclaMZeZH3cs-1" vertex="1">
                    <mxGeometry x="1070" y="490" width="130" height="40" as="geometry"/>
                </mxCell>
                <mxCell id="uYXfiU1z-GfduqWxRQ0b-6" value="Memo component to&amp;nbsp;&lt;br&gt;avoid rerendering" style="rounded=1;whiteSpace=wrap;html=1;fillColor=#fad9d5;strokeColor=#ae4132;fontStyle=1;verticalAlign=middle;" parent="xybVMRSyUclaMZeZH3cs-1" vertex="1">
                    <mxGeometry x="1070" y="370" width="130" height="40" as="geometry"/>
                </mxCell>
                <mxCell id="uYXfiU1z-GfduqWxRQ0b-7" value="lifting the state up" style="rounded=1;whiteSpace=wrap;html=1;fillColor=#cdeb8b;strokeColor=#36393d;fontStyle=1;verticalAlign=middle;" parent="xybVMRSyUclaMZeZH3cs-1" vertex="1">
                    <mxGeometry x="1200" y="410" width="130" height="40" as="geometry"/>
                </mxCell>
                <mxCell id="uYXfiU1z-GfduqWxRQ0b-8" value="sending information down through properties" style="rounded=1;whiteSpace=wrap;html=1;fillColor=#cdeb8b;strokeColor=#36393d;fontStyle=1;verticalAlign=middle;" parent="xybVMRSyUclaMZeZH3cs-1" vertex="1">
                    <mxGeometry x="1200" y="450" width="140" height="50" as="geometry"/>
                </mxCell>
                <mxCell id="uYXfiU1z-GfduqWxRQ0b-9" value="react dev tools" style="rounded=1;whiteSpace=wrap;html=1;fillColor=#a20025;strokeColor=#6F0000;fontStyle=1;verticalAlign=middle;fontColor=#ffffff;" parent="xybVMRSyUclaMZeZH3cs-1" vertex="1">
                    <mxGeometry x="1480" y="520" width="130" height="40" as="geometry"/>
                </mxCell>
                <mxCell id="uYXfiU1z-GfduqWxRQ0b-10" value="Share" style="rounded=1;whiteSpace=wrap;html=1;fillColor=#008a00;strokeColor=#005700;fontStyle=1;verticalAlign=middle;fontColor=#ffffff;" parent="xybVMRSyUclaMZeZH3cs-1" vertex="1">
                    <mxGeometry x="940" y="410" width="130" height="80" as="geometry"/>
                </mxCell>
                <mxCell id="uYXfiU1z-GfduqWxRQ0b-11" value="Hi" style="rounded=1;whiteSpace=wrap;html=1;fillColor=#008a00;strokeColor=#005700;fontStyle=1;verticalAlign=middle;fontColor=#ffffff;" parent="xybVMRSyUclaMZeZH3cs-1" vertex="1">
                    <mxGeometry x="240" y="780" width="130" height="40" as="geometry"/>
                </mxCell>
                <mxCell id="uYXfiU1z-GfduqWxRQ0b-12" value="textBox.value = &quot;Welcome&quot;" style="rounded=1;whiteSpace=wrap;html=1;fillColor=#008a00;strokeColor=#005700;fontStyle=1;verticalAlign=middle;fontColor=#ffffff;" parent="xybVMRSyUclaMZeZH3cs-1" vertex="1">
                    <mxGeometry x="500" y="780" width="130" height="40" as="geometry"/>
                </mxCell>
                <mxCell id="uYXfiU1z-GfduqWxRQ0b-13" value="textBoxElement" style="rounded=1;whiteSpace=wrap;html=1;fillColor=#0050ef;strokeColor=#001DBC;fontStyle=1;verticalAlign=middle;fontColor=#ffffff;" parent="xybVMRSyUclaMZeZH3cs-1" vertex="1">
                    <mxGeometry x="260" y="840" width="130" height="20" as="geometry"/>
                </mxCell>
                <mxCell id="uYXfiU1z-GfduqWxRQ0b-14" value="textBoxFormControl" style="rounded=1;whiteSpace=wrap;html=1;fillColor=#0050ef;strokeColor=#001DBC;fontStyle=1;verticalAlign=middle;fontColor=#ffffff;" parent="xybVMRSyUclaMZeZH3cs-1" vertex="1">
                    <mxGeometry x="410" y="840" width="130" height="20" as="geometry"/>
                </mxCell>
                <mxCell id="uYXfiU1z-GfduqWxRQ0b-15" value="textBoxFormControl.value&amp;nbsp; = &quot;Hi&quot;" style="rounded=1;whiteSpace=wrap;html=1;fillColor=#0050ef;strokeColor=#001DBC;fontStyle=1;verticalAlign=middle;fontColor=#ffffff;" parent="xybVMRSyUclaMZeZH3cs-1" vertex="1">
                    <mxGeometry x="410" y="870" width="260" height="50" as="geometry"/>
                </mxCell>
                <mxCell id="uYXfiU1z-GfduqWxRQ0b-19" value="" style="shape=flexArrow;endArrow=classic;startArrow=classic;html=1;entryX=0.25;entryY=0;entryDx=0;entryDy=0;" parent="xybVMRSyUclaMZeZH3cs-1" target="uYXfiU1z-GfduqWxRQ0b-12" edge="1">
                    <mxGeometry width="100" height="100" relative="1" as="geometry">
                        <mxPoint x="380" y="800" as="sourcePoint"/>
                        <mxPoint x="480" y="700" as="targetPoint"/>
                        <Array as="points">
                            <mxPoint x="400" y="780"/>
                        </Array>
                    </mxGeometry>
                </mxCell>
                <mxCell id="uYXfiU1z-GfduqWxRQ0b-25" value="View" style="ellipse;whiteSpace=wrap;html=1;" parent="xybVMRSyUclaMZeZH3cs-1" vertex="1">
                    <mxGeometry x="240" y="680" width="120" height="80" as="geometry"/>
                </mxCell>
                <mxCell id="uYXfiU1z-GfduqWxRQ0b-26" value="model" style="ellipse;whiteSpace=wrap;html=1;" parent="xybVMRSyUclaMZeZH3cs-1" vertex="1">
                    <mxGeometry x="510" y="680" width="120" height="80" as="geometry"/>
                </mxCell>
                <mxCell id="uYXfiU1z-GfduqWxRQ0b-36" value="Framework (Component, UI, Model)" style="rounded=1;whiteSpace=wrap;html=1;fillColor=#b1ddf0;strokeColor=#10739e;verticalAlign=bottom;" parent="xybVMRSyUclaMZeZH3cs-1" vertex="1">
                    <mxGeometry x="310" y="940" width="210" height="60" as="geometry"/>
                </mxCell>
                <mxCell id="uYXfiU1z-GfduqWxRQ0b-38" value="State" style="ellipse;whiteSpace=wrap;html=1;fillColor=#e51400;strokeColor=#B20000;fontColor=#ffffff;" parent="xybVMRSyUclaMZeZH3cs-1" vertex="1">
                    <mxGeometry x="1005" y="590" width="120" height="80" as="geometry"/>
                </mxCell>
                <mxCell id="uYXfiU1z-GfduqWxRQ0b-39" value="the eventHandler&amp;nbsp;&lt;br&gt;setState" style="rounded=1;whiteSpace=wrap;html=1;fillColor=#e51400;strokeColor=#B20000;fontStyle=1;verticalAlign=middle;fontColor=#ffffff;" parent="xybVMRSyUclaMZeZH3cs-1" vertex="1">
                    <mxGeometry x="1300" y="640" width="130" height="40" as="geometry"/>
                </mxCell>
                <mxCell id="uYXfiU1z-GfduqWxRQ0b-41" value="" style="group" parent="xybVMRSyUclaMZeZH3cs-1" vertex="1" connectable="0">
                    <mxGeometry x="760" y="700" width="500" height="270" as="geometry"/>
                </mxCell>
                <mxCell id="uYXfiU1z-GfduqWxRQ0b-20" value="" style="rounded=1;whiteSpace=wrap;html=1;fillColor=#e3c800;strokeColor=#B09500;verticalAlign=bottom;fontColor=#000000;" parent="uYXfiU1z-GfduqWxRQ0b-41" vertex="1">
                    <mxGeometry width="500" height="270" as="geometry"/>
                </mxCell>
                <mxCell id="uYXfiU1z-GfduqWxRQ0b-21" value="State" style="ellipse;whiteSpace=wrap;html=1;fillColor=#f5f5f5;strokeColor=#666666;gradientColor=#b3b3b3;" parent="uYXfiU1z-GfduqWxRQ0b-41" vertex="1">
                    <mxGeometry x="185" y="10" width="120" height="70" as="geometry"/>
                </mxCell>
                <mxCell id="uYXfiU1z-GfduqWxRQ0b-22" value="View" style="ellipse;whiteSpace=wrap;html=1;gradientColor=#d5739d;fillColor=#e6d0de;strokeColor=#996185;" parent="uYXfiU1z-GfduqWxRQ0b-41" vertex="1">
                    <mxGeometry x="67.5" y="140" width="120" height="80" as="geometry"/>
                </mxCell>
                <mxCell id="uYXfiU1z-GfduqWxRQ0b-23" style="edgeStyle=orthogonalEdgeStyle;rounded=0;orthogonalLoop=1;jettySize=auto;html=1;entryX=0.35;entryY=0.048;entryDx=0;entryDy=0;entryPerimeter=0;" parent="uYXfiU1z-GfduqWxRQ0b-41" source="uYXfiU1z-GfduqWxRQ0b-21" target="uYXfiU1z-GfduqWxRQ0b-22" edge="1">
                    <mxGeometry relative="1" as="geometry"/>
                </mxCell>
                <mxCell id="uYXfiU1z-GfduqWxRQ0b-24" value="Virtual DOM" style="rounded=1;whiteSpace=wrap;html=1;fillColor=#76608a;strokeColor=#432D57;fontStyle=1;verticalAlign=middle;fontColor=#ffffff;" parent="uYXfiU1z-GfduqWxRQ0b-41" vertex="1">
                    <mxGeometry x="20" y="70" width="130" height="40" as="geometry"/>
                </mxCell>
                <mxCell id="uYXfiU1z-GfduqWxRQ0b-29" style="edgeStyle=orthogonalEdgeStyle;rounded=0;orthogonalLoop=1;jettySize=auto;html=1;entryX=1;entryY=0.5;entryDx=0;entryDy=0;" parent="uYXfiU1z-GfduqWxRQ0b-41" source="uYXfiU1z-GfduqWxRQ0b-27" target="uYXfiU1z-GfduqWxRQ0b-21" edge="1">
                    <mxGeometry relative="1" as="geometry"/>
                </mxCell>
                <mxCell id="uYXfiU1z-GfduqWxRQ0b-27" value="Events" style="ellipse;whiteSpace=wrap;html=1;gradientColor=#d5739d;fillColor=#e6d0de;strokeColor=#996185;" parent="uYXfiU1z-GfduqWxRQ0b-41" vertex="1">
                    <mxGeometry x="360" y="120" width="120" height="80" as="geometry"/>
                </mxCell>
                <mxCell id="uYXfiU1z-GfduqWxRQ0b-32" style="edgeStyle=orthogonalEdgeStyle;rounded=0;orthogonalLoop=1;jettySize=auto;html=1;entryX=0.083;entryY=0.75;entryDx=0;entryDy=0;entryPerimeter=0;" parent="uYXfiU1z-GfduqWxRQ0b-41" source="uYXfiU1z-GfduqWxRQ0b-22" target="uYXfiU1z-GfduqWxRQ0b-27" edge="1">
                    <mxGeometry relative="1" as="geometry"/>
                </mxCell>
                <mxCell id="uYXfiU1z-GfduqWxRQ0b-28" value="Interacting Users" style="verticalLabelPosition=bottom;html=1;verticalAlign=top;align=center;strokeColor=none;fillColor=#00BEF2;shape=mxgraph.azure.user;" parent="uYXfiU1z-GfduqWxRQ0b-41" vertex="1">
                    <mxGeometry x="187.5" y="190" width="47.5" height="50" as="geometry"/>
                </mxCell>
                <mxCell id="uYXfiU1z-GfduqWxRQ0b-31" value="render JSX" style="rounded=1;whiteSpace=wrap;html=1;fillColor=#76608a;strokeColor=#432D57;fontStyle=1;verticalAlign=middle;fontColor=#ffffff;" parent="uYXfiU1z-GfduqWxRQ0b-41" vertex="1">
                    <mxGeometry x="20" y="46" width="130" height="40" as="geometry"/>
                </mxCell>
                <mxCell id="uYXfiU1z-GfduqWxRQ0b-33" value="reaise events" style="rounded=1;whiteSpace=wrap;html=1;fillColor=#76608a;strokeColor=#432D57;fontStyle=1;verticalAlign=middle;fontColor=#ffffff;" parent="uYXfiU1z-GfduqWxRQ0b-41" vertex="1">
                    <mxGeometry x="250" y="200" width="130" height="40" as="geometry"/>
                </mxCell>
                <mxCell id="uYXfiU1z-GfduqWxRQ0b-34" value="the eventHandler&amp;nbsp;&lt;br&gt;setState" style="rounded=1;whiteSpace=wrap;html=1;fillColor=#f5f5f5;strokeColor=#666666;fontStyle=1;verticalAlign=middle;gradientColor=#b3b3b3;" parent="uYXfiU1z-GfduqWxRQ0b-41" vertex="1">
                    <mxGeometry x="350" y="70" width="130" height="40" as="geometry"/>
                </mxCell>
                <mxCell id="uYXfiU1z-GfduqWxRQ0b-40" value="Properties (props)" style="ellipse;whiteSpace=wrap;html=1;fillColor=#e51400;strokeColor=#B20000;fontColor=#ffffff;" parent="uYXfiU1z-GfduqWxRQ0b-41" vertex="1">
                    <mxGeometry x="185" y="60" width="120" height="80" as="geometry"/>
                </mxCell>
                <mxCell id="uYXfiU1z-GfduqWxRQ0b-42" value="Parent Component" style="rounded=1;whiteSpace=wrap;html=1;fillColor=#a20025;strokeColor=#6F0000;fontStyle=1;verticalAlign=middle;fontColor=#ffffff;" parent="xybVMRSyUclaMZeZH3cs-1" vertex="1">
                    <mxGeometry x="1090" y="575" width="360" height="40" as="geometry"/>
                </mxCell>
                <mxCell id="uYXfiU1z-GfduqWxRQ0b-43" value="" style="group" parent="xybVMRSyUclaMZeZH3cs-1" vertex="1" connectable="0">
                    <mxGeometry x="1300" y="720" width="500" height="270" as="geometry"/>
                </mxCell>
                <mxCell id="uYXfiU1z-GfduqWxRQ0b-44" value="" style="rounded=1;whiteSpace=wrap;html=1;fillColor=#e3c800;strokeColor=#B09500;verticalAlign=bottom;fontColor=#000000;" parent="uYXfiU1z-GfduqWxRQ0b-43" vertex="1">
                    <mxGeometry width="500" height="270" as="geometry"/>
                </mxCell>
                <mxCell id="uYXfiU1z-GfduqWxRQ0b-45" value="State" style="ellipse;whiteSpace=wrap;html=1;fillColor=#f5f5f5;strokeColor=#666666;gradientColor=#b3b3b3;" parent="uYXfiU1z-GfduqWxRQ0b-43" vertex="1">
                    <mxGeometry x="185" y="10" width="120" height="70" as="geometry"/>
                </mxCell>
                <mxCell id="uYXfiU1z-GfduqWxRQ0b-46" value="View" style="ellipse;whiteSpace=wrap;html=1;gradientColor=#d5739d;fillColor=#e6d0de;strokeColor=#996185;" parent="uYXfiU1z-GfduqWxRQ0b-43" vertex="1">
                    <mxGeometry x="67.5" y="140" width="120" height="80" as="geometry"/>
                </mxCell>
                <mxCell id="uYXfiU1z-GfduqWxRQ0b-47" style="edgeStyle=orthogonalEdgeStyle;rounded=0;orthogonalLoop=1;jettySize=auto;html=1;entryX=0.35;entryY=0.048;entryDx=0;entryDy=0;entryPerimeter=0;" parent="uYXfiU1z-GfduqWxRQ0b-43" source="uYXfiU1z-GfduqWxRQ0b-45" target="uYXfiU1z-GfduqWxRQ0b-46" edge="1">
                    <mxGeometry relative="1" as="geometry"/>
                </mxCell>
                <mxCell id="uYXfiU1z-GfduqWxRQ0b-48" value="Virtual DOM" style="rounded=1;whiteSpace=wrap;html=1;fillColor=#76608a;strokeColor=#432D57;fontStyle=1;verticalAlign=middle;fontColor=#ffffff;" parent="uYXfiU1z-GfduqWxRQ0b-43" vertex="1">
                    <mxGeometry x="20" y="70" width="130" height="40" as="geometry"/>
                </mxCell>
                <mxCell id="uYXfiU1z-GfduqWxRQ0b-49" style="edgeStyle=orthogonalEdgeStyle;rounded=0;orthogonalLoop=1;jettySize=auto;html=1;entryX=1;entryY=0.5;entryDx=0;entryDy=0;" parent="uYXfiU1z-GfduqWxRQ0b-43" source="uYXfiU1z-GfduqWxRQ0b-50" target="uYXfiU1z-GfduqWxRQ0b-45" edge="1">
                    <mxGeometry relative="1" as="geometry"/>
                </mxCell>
                <mxCell id="uYXfiU1z-GfduqWxRQ0b-50" value="Events" style="ellipse;whiteSpace=wrap;html=1;gradientColor=#d5739d;fillColor=#e6d0de;strokeColor=#996185;" parent="uYXfiU1z-GfduqWxRQ0b-43" vertex="1">
                    <mxGeometry x="360" y="120" width="120" height="80" as="geometry"/>
                </mxCell>
                <mxCell id="uYXfiU1z-GfduqWxRQ0b-51" style="edgeStyle=orthogonalEdgeStyle;rounded=0;orthogonalLoop=1;jettySize=auto;html=1;entryX=0.083;entryY=0.75;entryDx=0;entryDy=0;entryPerimeter=0;" parent="uYXfiU1z-GfduqWxRQ0b-43" source="uYXfiU1z-GfduqWxRQ0b-46" target="uYXfiU1z-GfduqWxRQ0b-50" edge="1">
                    <mxGeometry relative="1" as="geometry"/>
                </mxCell>
                <mxCell id="uYXfiU1z-GfduqWxRQ0b-52" value="Interacting Users" style="verticalLabelPosition=bottom;html=1;verticalAlign=top;align=center;strokeColor=none;fillColor=#00BEF2;shape=mxgraph.azure.user;" parent="uYXfiU1z-GfduqWxRQ0b-43" vertex="1">
                    <mxGeometry x="187.5" y="190" width="47.5" height="50" as="geometry"/>
                </mxCell>
                <mxCell id="uYXfiU1z-GfduqWxRQ0b-53" value="render JSX" style="rounded=1;whiteSpace=wrap;html=1;fillColor=#76608a;strokeColor=#432D57;fontStyle=1;verticalAlign=middle;fontColor=#ffffff;" parent="uYXfiU1z-GfduqWxRQ0b-43" vertex="1">
                    <mxGeometry x="20" y="46" width="130" height="40" as="geometry"/>
                </mxCell>
                <mxCell id="uYXfiU1z-GfduqWxRQ0b-54" value="reaise events" style="rounded=1;whiteSpace=wrap;html=1;fillColor=#76608a;strokeColor=#432D57;fontStyle=1;verticalAlign=middle;fontColor=#ffffff;" parent="uYXfiU1z-GfduqWxRQ0b-43" vertex="1">
                    <mxGeometry x="250" y="200" width="130" height="40" as="geometry"/>
                </mxCell>
                <mxCell id="uYXfiU1z-GfduqWxRQ0b-55" value="the eventHandler&amp;nbsp;&lt;br&gt;setState" style="rounded=1;whiteSpace=wrap;html=1;fillColor=#f5f5f5;strokeColor=#666666;fontStyle=1;verticalAlign=middle;gradientColor=#b3b3b3;" parent="uYXfiU1z-GfduqWxRQ0b-43" vertex="1">
                    <mxGeometry x="350" y="70" width="130" height="40" as="geometry"/>
                </mxCell>
                <mxCell id="uYXfiU1z-GfduqWxRQ0b-56" value="Properties (props)" style="ellipse;whiteSpace=wrap;html=1;fillColor=#e51400;strokeColor=#B20000;fontColor=#ffffff;" parent="uYXfiU1z-GfduqWxRQ0b-43" vertex="1">
                    <mxGeometry x="185" y="60" width="120" height="80" as="geometry"/>
                </mxCell>
                <mxCell id="uYXfiU1z-GfduqWxRQ0b-57" value="iteratate the concept a couple of time...." style="ellipse;whiteSpace=wrap;html=1;gradientColor=#97d077;fillColor=#d5e8d4;strokeColor=#82b366;" parent="xybVMRSyUclaMZeZH3cs-1" vertex="1">
                    <mxGeometry x="920" y="1100" width="120" height="80" as="geometry"/>
                </mxCell>
                <mxCell id="uYXfiU1z-GfduqWxRQ0b-58" value="Properties (props)" style="ellipse;whiteSpace=wrap;html=1;fillColor=#d5e8d4;strokeColor=#82b366;" parent="xybVMRSyUclaMZeZH3cs-1" vertex="1">
                    <mxGeometry x="1230" y="685" width="120" height="80" as="geometry"/>
                </mxCell>
                <mxCell id="PEy6zUUL9-_vCdnStAGh-2" value="" style="outlineConnect=0;dashed=0;verticalLabelPosition=bottom;verticalAlign=top;align=center;html=1;shape=mxgraph.aws3.traditional_server;fillColor=#7D7C7C;gradientColor=none;" parent="xybVMRSyUclaMZeZH3cs-1" vertex="1">
                    <mxGeometry x="1610" y="1280" width="90" height="170" as="geometry"/>
                </mxCell>
                <mxCell id="PEy6zUUL9-_vCdnStAGh-3" value="" style="dashed=0;outlineConnect=0;html=1;align=center;labelPosition=center;verticalLabelPosition=bottom;verticalAlign=top;shape=mxgraph.webicons.html5;gradientColor=#DFDEDE" parent="xybVMRSyUclaMZeZH3cs-1" vertex="1">
                    <mxGeometry x="1570" y="1110" width="40" height="60" as="geometry"/>
                </mxCell>
                <mxCell id="PEy6zUUL9-_vCdnStAGh-4" value="" style="dashed=0;outlineConnect=0;html=1;align=center;labelPosition=center;verticalLabelPosition=bottom;verticalAlign=top;shape=mxgraph.webicons.html5;gradientColor=#DFDEDE" parent="xybVMRSyUclaMZeZH3cs-1" vertex="1">
                    <mxGeometry x="1635" y="1110" width="40" height="60" as="geometry"/>
                </mxCell>
                <mxCell id="PEy6zUUL9-_vCdnStAGh-5" value="" style="dashed=0;outlineConnect=0;html=1;align=center;labelPosition=center;verticalLabelPosition=bottom;verticalAlign=top;shape=mxgraph.webicons.html5;gradientColor=#DFDEDE" parent="xybVMRSyUclaMZeZH3cs-1" vertex="1">
                    <mxGeometry x="1700" y="1110" width="40" height="60" as="geometry"/>
                </mxCell>
                <mxCell id="PEy6zUUL9-_vCdnStAGh-11" style="edgeStyle=orthogonalEdgeStyle;rounded=0;orthogonalLoop=1;jettySize=auto;html=1;" parent="xybVMRSyUclaMZeZH3cs-1" source="PEy6zUUL9-_vCdnStAGh-6" target="PEy6zUUL9-_vCdnStAGh-1" edge="1">
                    <mxGeometry relative="1" as="geometry"/>
                </mxCell>
                <mxCell id="PEy6zUUL9-_vCdnStAGh-6" value="HTTP" style="dashed=0;outlineConnect=0;html=1;align=center;labelPosition=center;verticalLabelPosition=bottom;verticalAlign=top;shape=mxgraph.weblogos.chrome" parent="xybVMRSyUclaMZeZH3cs-1" vertex="1">
                    <mxGeometry x="1280" y="1152.3" width="74.8" height="75.4" as="geometry"/>
                </mxCell>
                <mxCell id="PEy6zUUL9-_vCdnStAGh-12" value="information for the Entire Web App" style="rounded=1;whiteSpace=wrap;html=1;fillColor=#d5e8d4;strokeColor=#82b366;" parent="xybVMRSyUclaMZeZH3cs-1" vertex="1">
                    <mxGeometry x="1720" y="1227.7" width="120" height="60" as="geometry"/>
                </mxCell>
                <mxCell id="PEy6zUUL9-_vCdnStAGh-13" value="change ( old - new) ?" style="rounded=1;whiteSpace=wrap;html=1;fillColor=#fad9d5;strokeColor=#ae4132;fontStyle=1;verticalAlign=middle;" parent="xybVMRSyUclaMZeZH3cs-1" vertex="1">
                    <mxGeometry x="1840" y="440" width="130" height="40" as="geometry"/>
                </mxCell>
                <mxCell id="PEy6zUUL9-_vCdnStAGh-14" value="Alan,John" style="ellipse;whiteSpace=wrap;html=1;fillColor=#6d8764;strokeColor=#3A5431;fontColor=#ffffff;" parent="xybVMRSyUclaMZeZH3cs-1" vertex="1">
                    <mxGeometry x="1845" y="515" width="120" height="70" as="geometry"/>
                </mxCell>
                <mxCell id="PEy6zUUL9-_vCdnStAGh-15" value="Alan,John,Lilly" style="ellipse;whiteSpace=wrap;html=1;fillColor=#e51400;strokeColor=#B20000;fontColor=#ffffff;" parent="xybVMRSyUclaMZeZH3cs-1" vertex="1">
                    <mxGeometry x="1840" y="362.5" width="120" height="70" as="geometry"/>
                </mxCell>
                <mxCell id="PEy6zUUL9-_vCdnStAGh-17" value="Alan,John, Lilly" style="ellipse;whiteSpace=wrap;html=1;fillColor=#f5f5f5;strokeColor=#666666;gradientColor=#b3b3b3;" parent="xybVMRSyUclaMZeZH3cs-1" vertex="1">
                    <mxGeometry x="1940" y="580" width="120" height="70" as="geometry"/>
                </mxCell>
            </root>
        </mxGraphModel>
    </diagram>
    <diagram id="yNg8IXJ2WDtt37HUk6vF" name="Redux">
        <mxGraphModel dx="1383" dy="568" grid="1" gridSize="10" guides="1" tooltips="1" connect="1" arrows="1" fold="1" page="1" pageScale="1" pageWidth="850" pageHeight="1100" math="0" shadow="0">
            <root>
                <mxCell id="mDQB_eCBUDu1zRX0V532-0"/>
                <mxCell id="mDQB_eCBUDu1zRX0V532-1" parent="mDQB_eCBUDu1zRX0V532-0"/>
                <mxCell id="jsaECsK6hm8pAEzsbWX9-11" value="" style="rounded=1;whiteSpace=wrap;html=1;fillColor=#d0cee2;strokeColor=#56517e;verticalAlign=bottom;fontSize=20;" parent="mDQB_eCBUDu1zRX0V532-1" vertex="1">
                    <mxGeometry x="-470" y="560" width="1330" height="520" as="geometry"/>
                </mxCell>
                <mxCell id="jsaECsK6hm8pAEzsbWX9-12" value="Store" style="rounded=1;whiteSpace=wrap;html=1;fillColor=#e6d0de;strokeColor=#996185;verticalAlign=bottom;fontSize=22;gradientColor=#d5739d;fontStyle=1" parent="mDQB_eCBUDu1zRX0V532-1" vertex="1">
                    <mxGeometry x="190" y="580" width="420" height="450" as="geometry"/>
                </mxCell>
                <mxCell id="jsaECsK6hm8pAEzsbWX9-10" value="" style="rounded=1;whiteSpace=wrap;html=1;fillColor=#d0cee2;strokeColor=#56517e;verticalAlign=bottom;fontSize=20;" parent="mDQB_eCBUDu1zRX0V532-1" vertex="1">
                    <mxGeometry x="-440" y="50" width="800" height="490" as="geometry"/>
                </mxCell>
                <mxCell id="jsaECsK6hm8pAEzsbWX9-3" style="edgeStyle=orthogonalEdgeStyle;rounded=0;orthogonalLoop=1;jettySize=auto;html=1;entryX=0;entryY=0.604;entryDx=0;entryDy=0;entryPerimeter=0;" parent="mDQB_eCBUDu1zRX0V532-1" source="4dQLEUifhb6wlMlI3mLo-0" target="I2KL22Nyn6Zs6f_fY4Ph-0" edge="1">
                    <mxGeometry relative="1" as="geometry"/>
                </mxCell>
                <mxCell id="jsaECsK6hm8pAEzsbWX9-4" value="dispatches an" style="edgeLabel;html=1;align=center;verticalAlign=middle;resizable=0;points=[];fontSize=16;fontStyle=1" parent="jsaECsK6hm8pAEzsbWX9-3" vertex="1" connectable="0">
                    <mxGeometry x="-0.2356" y="1" relative="1" as="geometry">
                        <mxPoint as="offset"/>
                    </mxGeometry>
                </mxCell>
                <mxCell id="4dQLEUifhb6wlMlI3mLo-0" value="View / UI" style="ellipse;whiteSpace=wrap;html=1;verticalAlign=middle;fillColor=#e3c800;strokeColor=#B09500;fontColor=#000000;fontSize=20;fontStyle=1" parent="mDQB_eCBUDu1zRX0V532-1" vertex="1">
                    <mxGeometry x="-450" y="600" width="200" height="170" as="geometry"/>
                </mxCell>
                <mxCell id="jsaECsK6hm8pAEzsbWX9-8" style="edgeStyle=orthogonalEdgeStyle;rounded=0;orthogonalLoop=1;jettySize=auto;html=1;entryX=0.922;entryY=0.234;entryDx=0;entryDy=0;entryPerimeter=0;fontSize=20;" parent="mDQB_eCBUDu1zRX0V532-1" source="4dQLEUifhb6wlMlI3mLo-1" target="4dQLEUifhb6wlMlI3mLo-0" edge="1">
                    <mxGeometry relative="1" as="geometry"/>
                </mxCell>
                <mxCell id="jsaECsK6hm8pAEzsbWX9-9" value="notifies the ui&lt;br&gt;that the state is changes" style="edgeLabel;html=1;align=center;verticalAlign=middle;resizable=0;points=[];fontSize=20;fontStyle=1" parent="jsaECsK6hm8pAEzsbWX9-8" vertex="1" connectable="0">
                    <mxGeometry x="0.1534" relative="1" as="geometry">
                        <mxPoint x="34" y="-20" as="offset"/>
                    </mxGeometry>
                </mxCell>
                <mxCell id="4dQLEUifhb6wlMlI3mLo-1" value="State" style="ellipse;whiteSpace=wrap;html=1;verticalAlign=middle;fillColor=#fa6800;strokeColor=#C73500;fontColor=#000000;fontStyle=1;fontSize=21;" parent="mDQB_eCBUDu1zRX0V532-1" vertex="1">
                    <mxGeometry x="225" y="610" width="200" height="170" as="geometry"/>
                </mxCell>
                <mxCell id="jsaECsK6hm8pAEzsbWX9-6" style="edgeStyle=orthogonalEdgeStyle;rounded=0;orthogonalLoop=1;jettySize=auto;html=1;entryX=0.8;entryY=0.941;entryDx=0;entryDy=0;entryPerimeter=0;fontSize=18;" parent="mDQB_eCBUDu1zRX0V532-1" source="I2KL22Nyn6Zs6f_fY4Ph-0" target="4dQLEUifhb6wlMlI3mLo-1" edge="1">
                    <mxGeometry relative="1" as="geometry"/>
                </mxCell>
                <mxCell id="jsaECsK6hm8pAEzsbWX9-7" value="runs a reducer to update the state" style="edgeLabel;html=1;align=center;verticalAlign=middle;resizable=0;points=[];fontSize=21;fontStyle=1" parent="jsaECsK6hm8pAEzsbWX9-6" vertex="1" connectable="0">
                    <mxGeometry x="0.3411" y="5" relative="1" as="geometry">
                        <mxPoint y="1" as="offset"/>
                    </mxGeometry>
                </mxCell>
                <mxCell id="I2KL22Nyn6Zs6f_fY4Ph-0" value="Action" style="ellipse;whiteSpace=wrap;html=1;verticalAlign=middle;fillColor=#fad9d5;strokeColor=#ae4132;fontSize=23;fontStyle=1" parent="mDQB_eCBUDu1zRX0V532-1" vertex="1">
                    <mxGeometry x="-190" y="870" width="200" height="170" as="geometry"/>
                </mxCell>
                <mxCell id="jsaECsK6hm8pAEzsbWX9-0" value="raises an" style="edgeStyle=orthogonalEdgeStyle;rounded=0;orthogonalLoop=1;jettySize=auto;html=1;fontSize=20;" parent="mDQB_eCBUDu1zRX0V532-1" source="I2KL22Nyn6Zs6f_fY4Ph-1" target="I2KL22Nyn6Zs6f_fY4Ph-3" edge="1">
                    <mxGeometry relative="1" as="geometry">
                        <Array as="points">
                            <mxPoint x="-200" y="410"/>
                        </Array>
                    </mxGeometry>
                </mxCell>
                <mxCell id="I2KL22Nyn6Zs6f_fY4Ph-1" value="View" style="ellipse;whiteSpace=wrap;html=1;verticalAlign=middle;fillColor=#e3c800;strokeColor=#B09500;fontColor=#000000;" parent="mDQB_eCBUDu1zRX0V532-1" vertex="1">
                    <mxGeometry x="-400" y="110" width="200" height="170" as="geometry"/>
                </mxCell>
                <mxCell id="jsaECsK6hm8pAEzsbWX9-2" value="change in&amp;nbsp;&lt;br style=&quot;font-size: 18px;&quot;&gt;state&amp;nbsp;&lt;br style=&quot;font-size: 18px;&quot;&gt;re-renders the component" style="edgeStyle=orthogonalEdgeStyle;rounded=0;orthogonalLoop=1;jettySize=auto;html=1;entryX=1.01;entryY=0.432;entryDx=0;entryDy=0;entryPerimeter=0;fontStyle=1;fontSize=18;" parent="mDQB_eCBUDu1zRX0V532-1" source="I2KL22Nyn6Zs6f_fY4Ph-2" target="I2KL22Nyn6Zs6f_fY4Ph-1" edge="1">
                    <mxGeometry relative="1" as="geometry"/>
                </mxCell>
                <mxCell id="I2KL22Nyn6Zs6f_fY4Ph-2" value="State" style="ellipse;whiteSpace=wrap;html=1;verticalAlign=middle;fillColor=#fa6800;strokeColor=#C73500;fontColor=#000000;" parent="mDQB_eCBUDu1zRX0V532-1" vertex="1">
                    <mxGeometry y="100" width="200" height="170" as="geometry"/>
                </mxCell>
                <mxCell id="jsaECsK6hm8pAEzsbWX9-1" style="edgeStyle=orthogonalEdgeStyle;rounded=0;orthogonalLoop=1;jettySize=auto;html=1;" parent="mDQB_eCBUDu1zRX0V532-1" source="I2KL22Nyn6Zs6f_fY4Ph-3" target="I2KL22Nyn6Zs6f_fY4Ph-2" edge="1">
                    <mxGeometry relative="1" as="geometry">
                        <Array as="points">
                            <mxPoint x="100" y="380"/>
                        </Array>
                    </mxGeometry>
                </mxCell>
                <mxCell id="jsaECsK6hm8pAEzsbWX9-5" value="event handler update the state" style="edgeLabel;html=1;align=center;verticalAlign=middle;resizable=0;points=[];fontStyle=1;fontSize=16;" parent="jsaECsK6hm8pAEzsbWX9-1" vertex="1" connectable="0">
                    <mxGeometry x="0.2229" y="1" relative="1" as="geometry">
                        <mxPoint x="1" y="-41" as="offset"/>
                    </mxGeometry>
                </mxCell>
                <mxCell id="I2KL22Nyn6Zs6f_fY4Ph-3" value="Event" style="ellipse;whiteSpace=wrap;html=1;verticalAlign=middle;fillColor=#76608a;strokeColor=#432D57;fontColor=#ffffff;" parent="mDQB_eCBUDu1zRX0V532-1" vertex="1">
                    <mxGeometry x="-150" y="350" width="200" height="170" as="geometry"/>
                </mxCell>
                <mxCell id="jsaECsK6hm8pAEzsbWX9-13" value="managed by the redux store?" style="rounded=1;whiteSpace=wrap;html=1;fillColor=#d5e8d4;strokeColor=#82b366;fontStyle=1;fontSize=22;" parent="mDQB_eCBUDu1zRX0V532-1" vertex="1">
                    <mxGeometry x="-230" y="1170" width="520" height="40" as="geometry"/>
                </mxCell>
                <mxCell id="jsaECsK6hm8pAEzsbWX9-14" value="application state" style="rounded=1;whiteSpace=wrap;html=1;fillColor=#1ba1e2;strokeColor=#006EAF;fontStyle=1;fontSize=22;fontColor=#ffffff;" parent="mDQB_eCBUDu1zRX0V532-1" vertex="1">
                    <mxGeometry x="380" y="1170" width="400" height="40" as="geometry"/>
                </mxCell>
                <mxCell id="jsaECsK6hm8pAEzsbWX9-15" value="needs to be updated in the store?" style="rounded=1;whiteSpace=wrap;html=1;fillColor=#d5e8d4;strokeColor=#82b366;fontStyle=1;fontSize=22;" parent="mDQB_eCBUDu1zRX0V532-1" vertex="1">
                    <mxGeometry x="-230" y="1230" width="520" height="40" as="geometry"/>
                </mxCell>
                <mxCell id="jsaECsK6hm8pAEzsbWX9-16" value="action" style="rounded=1;whiteSpace=wrap;html=1;fillColor=#1ba1e2;strokeColor=#006EAF;fontStyle=1;fontSize=22;fontColor=#ffffff;" parent="mDQB_eCBUDu1zRX0V532-1" vertex="1">
                    <mxGeometry x="380" y="1230" width="400" height="40" as="geometry"/>
                </mxCell>
                <mxCell id="jsaECsK6hm8pAEzsbWX9-17" value="updates the store?" style="rounded=1;whiteSpace=wrap;html=1;fillColor=#d5e8d4;strokeColor=#82b366;fontStyle=1;fontSize=22;" parent="mDQB_eCBUDu1zRX0V532-1" vertex="1">
                    <mxGeometry x="-240" y="1290" width="520" height="40" as="geometry"/>
                </mxCell>
                <mxCell id="jsaECsK6hm8pAEzsbWX9-18" value="reducer" style="rounded=1;whiteSpace=wrap;html=1;fillColor=#1ba1e2;strokeColor=#006EAF;fontStyle=1;fontSize=22;fontColor=#ffffff;" parent="mDQB_eCBUDu1zRX0V532-1" vertex="1">
                    <mxGeometry x="380" y="1290" width="400" height="40" as="geometry"/>
                </mxCell>
                <mxCell id="jsaECsK6hm8pAEzsbWX9-19" value="contains the state?" style="rounded=1;whiteSpace=wrap;html=1;fillColor=#d5e8d4;strokeColor=#82b366;fontStyle=1;fontSize=22;" parent="mDQB_eCBUDu1zRX0V532-1" vertex="1">
                    <mxGeometry x="-240" y="1360" width="520" height="40" as="geometry"/>
                </mxCell>
                <mxCell id="jsaECsK6hm8pAEzsbWX9-20" value="store" style="rounded=1;whiteSpace=wrap;html=1;fillColor=#1ba1e2;strokeColor=#006EAF;fontStyle=1;fontSize=22;fontColor=#ffffff;" parent="mDQB_eCBUDu1zRX0V532-1" vertex="1">
                    <mxGeometry x="380" y="1360" width="400" height="40" as="geometry"/>
                </mxCell>
                <mxCell id="jsaECsK6hm8pAEzsbWX9-21" value="action" style="rounded=1;whiteSpace=wrap;html=1;fillColor=#1ba1e2;strokeColor=#006EAF;fontStyle=1;fontSize=22;fontColor=#ffffff;" parent="mDQB_eCBUDu1zRX0V532-1" vertex="1">
                    <mxGeometry x="-410" y="1580" width="400" height="40" as="geometry"/>
                </mxCell>
                <mxCell id="jsaECsK6hm8pAEzsbWX9-22" value="action is an object" style="rounded=1;whiteSpace=wrap;html=1;fillColor=#cdeb8b;strokeColor=#36393d;fontStyle=1;fontSize=22;" parent="mDQB_eCBUDu1zRX0V532-1" vertex="1">
                    <mxGeometry x="-410" y="1640" width="400" height="40" as="geometry"/>
                </mxCell>
                <mxCell id="jsaECsK6hm8pAEzsbWX9-23" value="(value) intention to change the state" style="rounded=1;whiteSpace=wrap;html=1;fillColor=#cdeb8b;strokeColor=#36393d;fontStyle=1;fontSize=22;" parent="mDQB_eCBUDu1zRX0V532-1" vertex="1">
                    <mxGeometry x="-410" y="1690" width="400" height="40" as="geometry"/>
                </mxCell>
                <mxCell id="jsaECsK6hm8pAEzsbWX9-24" value="action should be the only way to put data into a store" style="rounded=1;whiteSpace=wrap;html=1;fillColor=#cdeb8b;strokeColor=#36393d;fontStyle=1;fontSize=22;" parent="mDQB_eCBUDu1zRX0V532-1" vertex="1">
                    <mxGeometry x="-410" y="1750" width="400" height="70" as="geometry"/>
                </mxCell>
                <mxCell id="beoh1H8imUrXK4xihwRl-0" value="reducer" style="rounded=1;whiteSpace=wrap;html=1;fillColor=#fad9d5;strokeColor=#ae4132;fontStyle=1;verticalAlign=middle;fontSize=22;" parent="mDQB_eCBUDu1zRX0V532-1" vertex="1">
                    <mxGeometry x="425" y="900" width="130" height="40" as="geometry"/>
                </mxCell>
                <mxCell id="beoh1H8imUrXK4xihwRl-1" value="how does the view know that the state is updated?&amp;nbsp;&amp;nbsp;&lt;br&gt;view SUBSCRIBES to the store......" style="rounded=1;whiteSpace=wrap;html=1;fillColor=#d80073;strokeColor=#A50040;fontStyle=1;verticalAlign=middle;fontSize=18;fontColor=#ffffff;" parent="mDQB_eCBUDu1zRX0V532-1" vertex="1">
                    <mxGeometry x="-150" y="720" width="330" height="60" as="geometry"/>
                </mxCell>
                <mxCell id="beoh1H8imUrXK4xihwRl-2" value="renderUI" style="rounded=1;whiteSpace=wrap;html=1;fillColor=#d80073;strokeColor=#A50040;fontStyle=1;verticalAlign=middle;fontSize=18;fontColor=#ffffff;" parent="mDQB_eCBUDu1zRX0V532-1" vertex="1">
                    <mxGeometry x="-240" y="670" width="160" height="40" as="geometry"/>
                </mxCell>
                <mxCell id="beoh1H8imUrXK4xihwRl-3" value="Principles of Redux" style="rounded=1;whiteSpace=wrap;html=1;fillColor=#008a00;strokeColor=#005700;verticalAlign=middle;align=center;fontStyle=1;fontSize=18;fontColor=#ffffff;" parent="mDQB_eCBUDu1zRX0V532-1" vertex="1">
                    <mxGeometry x="340" y="1640" width="540" height="50" as="geometry"/>
                </mxCell>
                <mxCell id="beoh1H8imUrXK4xihwRl-4" value="SINGLE SOURCE OF TRUTH&lt;br&gt;(GLOBAL STATE IN THE FOM OF AN OBJECT TREE IN A SINGLE STORE" style="rounded=1;whiteSpace=wrap;html=1;fillColor=#e3c800;strokeColor=#B09500;verticalAlign=middle;align=center;fontStyle=1;fontSize=18;fontColor=#000000;" parent="mDQB_eCBUDu1zRX0V532-1" vertex="1">
                    <mxGeometry x="340" y="1720" width="540" height="110" as="geometry"/>
                </mxCell>
                <mxCell id="beoh1H8imUrXK4xihwRl-5" value="STATE IS READ ONLY&lt;br&gt;EMIT AND CHANGE OBJECT BY DESCRIBING WHAT HAPPENED." style="rounded=1;whiteSpace=wrap;html=1;fillColor=#76608a;strokeColor=#432D57;verticalAlign=middle;align=center;fontStyle=1;fontSize=18;fontColor=#ffffff;" parent="mDQB_eCBUDu1zRX0V532-1" vertex="1">
                    <mxGeometry x="330" y="1870" width="540" height="90" as="geometry"/>
                </mxCell>
                <mxCell id="beoh1H8imUrXK4xihwRl-6" value="PURE FUNCTIONS ARE USED TO MAKE CHANGES&lt;br&gt;(PURE REDUCERS)" style="rounded=1;whiteSpace=wrap;html=1;fillColor=#fad9d5;strokeColor=#ae4132;verticalAlign=middle;align=center;fontStyle=1;fontSize=18;" parent="mDQB_eCBUDu1zRX0V532-1" vertex="1">
                    <mxGeometry x="340" y="2000" width="540" height="50" as="geometry"/>
                </mxCell>
            </root>
        </mxGraphModel>
    </diagram>
</mxfile>